{"title":"Seven Wonders of the Buddhist World. BBC 720p subtitles[aularon]","uid":6628352,"size":1447757355,"categoryP":"video","categoryS":"hd___tv_shows","magnet":"?xt=urn:btih:d358172a80c258b89abbf311ac5c89de128562c1&amp;dn=Seven+Wonders+of+the+Buddhist+World.+BBC+720p+subtitles%5Baularon%5D&amp;tr=udp%3A%2F%2Ftracker.openbittorrent.com%3A80&amp;tr=udp%3A%2F%2Fopen.demonii.com%3A1337&amp;tr=udp%3A%2F%2Ftracker.coppersurfer.tk%3A6969&amp;tr=udp%3A%2F%2Fexodus.desync.com%3A6969","seeders":0,"leechers":1,"uploader":"aularon","files":-1,"time":1314242472,"description":"Seven Wonders of the Buddhist World. BBC 720p x264 aac mp4 w/subtitles [aularon]\n\n- - -\nSynopsis\n- - -\nIn this fascinating documentary, historian Bettany Hughes travels to the seven wonders of the Buddhist world and offers a unique insight into one of the most ancient belief systems still practised today.\n\nBuddhism began 2,500 years ago when one man had an amazing internal revelation underneath a peepul tree in India. Today it is practised by over 350 million people worldwide, with numbers continuing to grow year on year.\n\nIn an attempt to gain a better understanding of the different beliefs and practices that form the core of the Buddhist philosophy and investigate how Buddhism started and where it travelled to, Hughes visits some of the most spectacular monuments built by Buddhists across the globe.\n\nHer journey begins at the Mahabodhi Temple in India, where Buddhism was born; here Hughes examines the foundations of the belief system - the three jewels.\n\nAt Nepal's Boudhanath Stupa, she looks deeper into the concept of dharma - the teaching of Buddha, and at the Temple of the Tooth in Sri Lanka, Bettany explores karma, the idea that our intentional acts will be mirrored in the future.\n\nAt Wat Pho Temple in Thailand, Hughes explores samsara, the endless cycle of birth and death that Buddhists seek to end by achieving enlightenment, before travelling to Angkor Wat in Cambodia to learn more about the practice of meditation.\n\nIn Hong Kong, Hughes visits the Giant Buddha and looks more closely at Zen, before arriving at the final wonder, the Hsi Lai temple in Los Angeles, to discover more about the ultimate goal for all Buddhists - nirvana.\n\n\n- - -\nURL\n- - -    &lt;a href=&quot;\nhttp://www.bbc.co.uk/programmes/b013y2mb&quot; rel=&quot;nofollow&quot; target=&quot;_NEW&quot;&gt;\nhttp://www.bbc.co.uk/programmes/b013y2mb&lt;/a&gt;\n\n\n- - -\nTechnical Details\n- - -\nGeneral\nComplete name                    : BBC.Seven.Wonders.of.the.Buddhist.World/Seven_Wonders_of_the_Buddhist_World_-_Seven_Wonders_of_the_Buddhist_World_b013y2mb_default.mp4\nFormat                           : MPEG-4\nFormat profile                   : Base Media\nCodec ID                         : isom\nFile size                        : 1.35 GiB\nDuration                         : 1h 14mn\nOverall bit rate                 : 2 603 Kbps\nMovie name                       : Seven Wonders of the Buddhist World\nAlbum                            : Seven Wonders of the Buddhist World\nPerformer                        : Seven Wonders of the Buddhist World\nGenre                            : Factual,History,Religion &amp; Ethics\nRecorded date                    : 2011-08-24T21:00:00+01:00\nWriting application              : Lavf53.6.0\nCover                            : Yes\nComment                          : Recorded using get_iplayer, by Aularon.\nrtng                             : 2\nstik                             : 1\ndesc                             : Bettany Hughes visits seven of the most famous ancient and modern Buddhist locations in the world: seven wonders that give an insight into the long and rich history of Buddhism.\ntvnn                             : BBC HD\ntvsh                             : Seven Wonders of the Buddhist World\ntven                             : b013y2mb\ncatg                             : Factual,History,Religion &amp; Ethics\n\nVideo\nID                               : 1\nFormat                           : AVC\nFormat/Info                      : Advanced Video Codec\nFormat profile                   : &lt;a class=&quot;__cf_email__&quot; href=&quot;/cdn-cgi/l/email-protection&quot; data-cfemail=&quot;662e0f010e262a524857&quot;&gt;[email&amp;#160;protected]&lt;/a&gt;&lt;script cf-hash='f9e31' type=&quot;text/javascript&quot;&gt;\n/* &lt;![CDATA[ */!function(){try{var t=&quot;currentScript&quot;in document?document.currentScript:function(){for(var t=document.getElementsByTagName(&quot;script&quot;),e=t.length;e--;)if(t[e].getAttribute(&quot;cf-hash&quot;))return t[e]}();if(t&amp;&amp;t.previousSibling){var e,r,n,i,c=t.previousSibling,a=c.getAttribute(&quot;data-cfemail&quot;);if(a){for(e=&quot;&quot;,r=parseInt(a.substr(0,2),16),n=2;a.length-n;n+=2)i=parseInt(a.substr(n,2),16)^r,e+=String.fromCharCode(i);e=document.createTextNode(e),c.parentNode.replaceChild(e,c)}}}catch(u){}}();/* ]]&gt; */&lt;/script&gt;\nFormat settings, CABAC           : Yes\nFormat settings, ReFrames        : 6 frames\nCodec ID                         : avc1\nCodec ID/Info                    : Advanced Video Coding\nDuration                         : 1h 14mn\nBit rate mode                    : Variable\nBit rate                         : 2 503 Kbps\nMaximum bit rate                 : 3 500 Kbps\nWidth                            : 1 280 pixels\nHeight                           : 720 pixels\nDisplay aspect ratio             : 16:9\nFrame rate mode                  : Constant\nFrame rate                       : 25.000 fps\nStandard                         : PAL\nColor space                      : YUV\nChroma subsampling               : 4:2:0\nBit depth                        : 8 bits\nScan type                        : Progressive\nBits/(Pixel*Frame)               : 0.109\nStream size                      : 1.30 GiB (96%)\n\nAudio\nID                               : 2\nFormat                           : AAC\nFormat/Info                      : Advanced Audio Codec\nFormat profile                   : HE-AAC / LC\nCodec ID                         : 40\nDuration                         : 1h 14mn\nBit rate mode                    : Constant\nBit rate                         : 96.0 Kbps\nChannel(s)                       : 2 channels\nChannel positions                : Front: L R\nSampling rate                    : 48.0 KHz / 24.0 KHz\nCompression mode                 : Lossy\nStream size                      : 50.2 MiB (4%)\n","torrent":{"xt":"urn:btih:d358172a80c258b89abbf311ac5c89de128562c1","amp;dn":"Seven+Wonders+of+the+Buddhist+World.+BBC+720p+subtitles%5Baularon%5D","amp;tr":["udp%3A%2F%2Ftracker.openbittorrent.com%3A80","udp%3A%2F%2Fopen.demonii.com%3A1337","udp%3A%2F%2Ftracker.coppersurfer.tk%3A6969","udp%3A%2F%2Fexodus.desync.com%3A6969"],"infoHash":"d358172a80c258b89abbf311ac5c89de128562c1","infoHashBuffer":{"type":"Buffer","data":[211,88,23,42,128,194,88,184,154,187,243,17,172,92,137,222,18,133,98,193]},"announce":[],"urlList":[]}}